# xmcd
#
# Track frame offsets: 
#        182
#        21070
#        34620
#        51977
#        70857
#        86737
#        103207
#        120845
#        141062
#        155042
#        167455
#        178872
#        199965
#        217725
#        234845
#        251537
#        270235
#        287995
#
# Disc length: 4029 seconds
#
# Revision: 7
# Processed by: cddbd v1.5.2PL0 Copyright (c) Steve Scherf et al.
# Submitted via: ExactAudioCopyFreeDBPlugin 1.0
#
DISCID=f60fbb12
DTITLE=Gunter Gabriel - Die großen Erfolge (1995)
DYEAR=1975
DGENRE=Schlager
TTITLE0=Er ist ein Kerl (der 30tonner Diesel)
TTITLE1=Hey Boss - ich brauch mehr Geld
TTITLE2=Ich bin CB-Funker
TTITLE3=Intercity Linie Nr. 4
TTITLE4=Das wär mir nie passiert
TTITLE5=Willy Klein, der Fernsehmann
TTITLE6=Ich schlaf' nicht gern allein ein
TTITLE7=5 Uhr morgens
TTITLE8=Worte, die ich leider nie gesagt
TTITLE9=König der Tramps (King of the Road)
TTITLE10=Oh, nur mit dir (Oh Lonesome Me)
TTITLE11=Ehrbares Mädchen (Good Hearted Woman)
TTITLE12=Rheingold-Trans-Europa (Orange Blossom Special)
TTITLE13=Gunter and Yvonne Gabriel - Hey, Yvonne (warum weint die Mammi)
TTITLE14=Gunter Gabriel and Yvonne - Tina, weine nicht (Don't Cry Joni)
TTITLE15=Juliane Werding and Gunter Gabriel - ...und darum Herr Richter
TTITLE16=Komm' unter meine Decke
TTITLE17=Michael Kunze, Gunter Gabriel - Deutschland ist...
EXTD=YEAR: 1995
EXTT0=
EXTT1=
EXTT2=
EXTT3=
EXTT4=
EXTT5=
EXTT6=
EXTT7=
EXTT8=
EXTT9=
EXTT10=
EXTT11=
EXTT12=
EXTT13=
EXTT14=
EXTT15=
EXTT16=
EXTT17=
PLAYORDER=
